{
    "asset" : {
        "generator" : "Khronos glTF Blender I/O v1.5.17",
        "version" : "2.0"
    },
    "scene" : 0,
    "scenes" : [
        {
            "name" : "Scene",
            "nodes" : [
                0,
                1
            ]
        }
    ],
    "nodes" : [
        {
            "mesh" : 0,
            "name" : "?",
            "scale" : [
                0.011998509056866169,
                0.011246392503380775,
                0.011208287440240383
            ]
        },
        {
            "mesh" : 1,
            "name" : "bleu",
            "scale" : [
                0.011998509056866169,
                0.011246392503380775,
                0.011208286508917809
            ]
        }
    ],
    "materials" : [
        {
            "doubleSided" : true,
            "name" : "Material.001",
            "pbrMetallicRoughness" : {
                "baseColorTexture" : {
                    "index" : 0
                },
                "metallicFactor" : 0,
                "roughnessFactor" : 0.5
            }
        },
        {
            "doubleSided" : true,
            "emissiveFactor" : [
                0,
                1,
                1
            ],
            "name" : "05_-_Default",
            "pbrMetallicRoughness" : {
                "baseColorFactor" : [
                    0,
                    0.03421842306852341,
                    1,
                    1
                ],
                "roughnessFactor" : 0.1995045691728592
            }
        }
    ],
    "meshes" : [
        {
            "name" : "questionmark_03 - Default_0",
            "primitives" : [
                {
                    "attributes" : {
                        "POSITION" : 0,
                        "NORMAL" : 1,
                        "TEXCOORD_0" : 2
                    },
                    "indices" : 3,
                    "material" : 0
                }
            ]
        },
        {
            "name" : "questionmark_05 - Default_0",
            "primitives" : [
                {
                    "attributes" : {
                        "POSITION" : 4,
                        "NORMAL" : 5,
                        "TEXCOORD_0" : 6
                    },
                    "indices" : 7,
                    "material" : 1
                }
            ]
        }
    ],
    "textures" : [
        {
            "sampler" : 0,
            "source" : 0
        }
    ],
    "images" : [
        {
            "bufferView" : 4,
            "mimeType" : "image/jpeg",
            "name" : "color"
        }
    ],
    "accessors" : [
        {
            "bufferView" : 0,
            "componentType" : 5126,
            "count" : 214,
            "max" : [
                77.95064544677734,
                116.75208282470703,
                17.27508544921875
            ],
            "min" : [
                -88.73672485351562,
                -150,
                -27.334762573242188
            ],
            "type" : "VEC3"
        },
        {
            "bufferView" : 1,
            "componentType" : 5126,
            "count" : 214,
            "type" : "VEC3"
        },
        {
            "bufferView" : 2,
            "componentType" : 5126,
            "count" : 214,
            "type" : "VEC2"
        },
        {
            "bufferView" : 3,
            "componentType" : 5123,
            "count" : 264,
            "type" : "SCALAR"
        },
        {
            "bufferView" : 5,
            "componentType" : 5126,
            "count" : 559,
            "max" : [
                77.95065307617188,
                116.75209045410156,
                17.27509307861328
            ],
            "min" : [
                -88.73673248291016,
                -150.00001525878906,
                -27.33477210998535
            ],
            "type" : "VEC3"
        },
        {
            "bufferView" : 6,
            "componentType" : 5126,
            "count" : 559,
            "type" : "VEC3"
        },
        {
            "bufferView" : 7,
            "componentType" : 5126,
            "count" : 559,
            "type" : "VEC2"
        },
        {
            "bufferView" : 8,
            "componentType" : 5123,
            "count" : 597,
            "type" : "SCALAR"
        }
    ],
    "bufferViews" : [
        {
            "buffer" : 0,
            "byteLength" : 2568,
            "byteOffset" : 0
        },
        {
            "buffer" : 0,
            "byteLength" : 2568,
            "byteOffset" : 2568
        },
        {
            "buffer" : 0,
            "byteLength" : 1712,
            "byteOffset" : 5136
        },
        {
            "buffer" : 0,
            "byteLength" : 528,
            "byteOffset" : 6848
        },
        {
            "buffer" : 0,
            "byteLength" : 142924,
            "byteOffset" : 7376
        },
        {
            "buffer" : 0,
            "byteLength" : 6708,
            "byteOffset" : 150300
        },
        {
            "buffer" : 0,
            "byteLength" : 6708,
            "byteOffset" : 157008
        },
        {
            "buffer" : 0,
            "byteLength" : 4472,
            "byteOffset" : 163716
        },
        {
            "buffer" : 0,
            "byteLength" : 1194,
            "byteOffset" : 168188
        }
    ],
    "samplers" : [
        {
            "magFilter" : 9729,
            "minFilter" : 9987
        }
    ],
    "buffers" : [
        {
            "byteLength" : 169384,
            "uri" : "data:application/octet-stream;base64,"
        }
    ]
}
