{
  "accessors": [
    {
      "bufferView": 2,
      "componentType": 5126,
      "count": 1814,
      "max": [
        11.69715690612793,
        7.8352370262145996,
        29.881467819213867
      ],
      "min": [
        -11.393722534179688,
        -9.2522602081298828,
        1.6404670476913452
      ],
      "type": "VEC3"
    },
    {
      "bufferView": 2,
      "byteOffset": 21768,
      "componentType": 5126,
      "count": 1814,
      "max": [
        0.99998974800109863,
        0.99999338388442993,
        0.99909424781799316
      ],
      "min": [
        -0.99991136789321899,
        -0.99999785423278809,
        -0.99945163726806641
      ],
      "type": "VEC3"
    },
    {
      "bufferView": 3,
      "componentType": 5126,
      "count": 1814,
      "max": [
        0.99999958276748657,
        0.99999368190765381,
        0.99998897314071655,
        1
      ],
      "min": [
        -0.99999988079071045,
        -0.99999451637268066,
        -0.99990761280059814,
        -1
      ],
      "type": "VEC4"
    },
    {
      "bufferView": 1,
      "componentType": 5126,
      "count": 1814,
      "max": [
        0.94886797666549683,
        0.99000000953674316
      ],
      "min": [
        0.0099999997764825821,
        0.041685998439788818
      ],
      "type": "VEC2"
    },
    {
      "bufferView": 0,
      "componentType": 5125,
      "count": 6132,
      "max": [
        1813
      ],
      "min": [
        0
      ],
      "type": "SCALAR"
    }
  ],
  "asset": {
    "extras": {
      "author": "Makovetkyi Volodymyr (https://sketchfab.com/pbr-scans)",
      "license": "CC-BY-4.0 (http://creativecommons.org/licenses/by/4.0/)",
      "source": "https://sketchfab.com/3d-models/pb120-wrenchs-low-0e599efc563247d6af1ec04a4940570c",
      "title": "PB120 Wrenchs Low"
    },
    "generator": "Sketchfab-10.33.2",
    "version": "2.0"
  },
  "bufferViews": [
    {
      "buffer": 0,
      "byteLength": 24528,
      "byteOffset": 0,
      "name": "floatBufferViews",
      "target": 34963
    },
    {
      "buffer": 0,
      "byteLength": 14512,
      "byteOffset": 24528,
      "byteStride": 8,
      "name": "floatBufferViews",
      "target": 34962
    },
    {
      "buffer": 0,
      "byteLength": 43536,
      "byteOffset": 39040,
      "byteStride": 12,
      "name": "floatBufferViews",
      "target": 34962
    },
    {
      "buffer": 0,
      "byteLength": 29024,
      "byteOffset": 82576,
      "byteStride": 16,
      "name": "floatBufferViews",
      "target": 34962
    }
  ],
  "buffers": [
    {
      "byteLength": 111600,
      "uri": "scene.bin"
    }
  ],
  "images": [
    {
      "uri": "./textures/wrenchs_Low_lambert2SG2_baseColor.jpeg"
    },
    {
      "uri": "./textures/wrenchs_Low_lambert2SG2_metallicRoughness.png"
    },
    {
      "uri": "./textures/wrenchs_Low_lambert2SG2_normal.png"
    }
  ],
  "materials": [
    {
      "doubleSided": true,
      "emissiveFactor": [
        0,
        0,
        0
      ],
      "name": "wrenchs_Low_lambert2SG2",
      "normalTexture": {
        "index": 2,
        "scale": 1,
        "texCoord": 0
      },
      "pbrMetallicRoughness": {
        "baseColorFactor": [
          1,
          1,
          1,
          1
        ],
        "baseColorTexture": {
          "index": 0,
          "texCoord": 0
        },
        "metallicFactor": 1,
        "metallicRoughnessTexture": {
          "index": 1,
          "texCoord": 0
        },
        "roughnessFactor": 1
      }
    }
  ],
  "meshes": [
    {
      "primitives": [
        {
          "attributes": {
            "NORMAL": 1,
            "POSITION": 0,
            "TANGENT": 2,
            "TEXCOORD_0": 3
          },
          "indices": 4,
          "material": 0,
          "mode": 4
        }
      ]
    }
  ],
  "nodes": [
    {
      "children": [
        1
      ],
      "name": "RootNode (gltf orientation matrix)",
      "rotation": [
        -0.70710678118654746,
        -0,
        -0,
        0.70710678118654757
      ]
    },
    {
      "children": [
        2
      ],
      "name": "RootNode (model correction matrix)"
    },
    {
      "children": [
        3
      ],
      "name": "c39f2f59f1df4a78b76a174f2c86076a.obj.cleaner.materialmerger.gles"
    },
    {
      "mesh": 0,
      "name": ""
    }
  ],
  "samplers": [
    {
      "magFilter": 9729,
      "minFilter": 9987,
      "wrapS": 10497,
      "wrapT": 10497
    }
  ],
  "scene": 0,
  "scenes": [
    {
      "name": "OSG_Scene",
      "nodes": [
        0
      ]
    }
  ],
  "textures": [
    {
      "sampler": 0,
      "source": 0
    },
    {
      "sampler": 0,
      "source": 1
    },
    {
      "sampler": 0,
      "source": 2
    }
  ]
}

