{
    "asset" : {
        "generator" : "Khronos glTF Blender I/O v1.5.17",
        "version" : "2.0"
    },
    "scene" : 0,
    "scenes" : [
        {
            "name" : "Scene",
            "nodes" : [
                0
            ]
        }
    ],
    "nodes" : [
        {
            "mesh" : 0,
            "name" : "Dragon"
        }
    ],
    "materials" : [
        {
            "doubleSided" : true,
            "name" : "Bouche",
            "pbrMetallicRoughness" : {
                "baseColorTexture" : {
                    "index" : 0
                },
                "metallicFactor" : 0,
                "roughnessFactor" : 0.5
            }
        },
        {
            "doubleSided" : true,
            "name" : "Moustaches",
            "pbrMetallicRoughness" : {
                "baseColorTexture" : {
                    "index" : 1
                },
                "metallicFactor" : 0,
                "roughnessFactor" : 0.5
            }
        },
        {
            "doubleSided" : true,
            "name" : "Earth",
            "pbrMetallicRoughness" : {
                "baseColorFactor" : [
                    0.49999991059303284,
                    0.0063398974016308784,
                    0.060577139258384705,
                    1
                ],
                "metallicFactor" : 0,
                "roughnessFactor" : 0.5
            }
        },
        {
            "doubleSided" : true,
            "name" : "Ecailles",
            "pbrMetallicRoughness" : {
                "baseColorTexture" : {
                    "index" : 2
                },
                "metallicFactor" : 0,
                "roughnessFactor" : 0.5
            }
        },
        {
            "doubleSided" : true,
            "name" : "Moustache 2",
            "pbrMetallicRoughness" : {
                "baseColorTexture" : {
                    "index" : 3
                },
                "metallicFactor" : 0,
                "roughnessFactor" : 0.5
            }
        },
        {
            "doubleSided" : true,
            "name" : "Griffes",
            "pbrMetallicRoughness" : {
                "baseColorFactor" : [
                    0.7847108244895935,
                    0.7515271306037903,
                    0.8000000715255737,
                    1
                ],
                "metallicFactor" : 0.36206895112991333,
                "roughnessFactor" : 0
            }
        },
        {
            "doubleSided" : true,
            "name" : "Pic",
            "pbrMetallicRoughness" : {
                "baseColorTexture" : {
                    "index" : 4
                },
                "metallicFactor" : 0,
                "roughnessFactor" : 0.5
            }
        },
        {
            "doubleSided" : true,
            "name" : "Eye",
            "pbrMetallicRoughness" : {
                "baseColorFactor" : [
                    0.7595446705818176,
                    0.7695436477661133,
                    0.8000000715255737,
                    1
                ],
                "metallicFactor" : 0,
                "roughnessFactor" : 0.5
            }
        },
        {
            "doubleSided" : true,
            "name" : "Iris",
            "pbrMetallicRoughness" : {
                "baseColorFactor" : [
                    0.1915823221206665,
                    0.8000000715255737,
                    0.7907872200012207,
                    1
                ],
                "metallicFactor" : 0,
                "roughnessFactor" : 0.5
            }
        }
    ],
    "meshes" : [
        {
            "name" : "Mesh_1.004",
            "primitives" : [
                {
                    "attributes" : {
                        "POSITION" : 0,
                        "NORMAL" : 1,
                        "TEXCOORD_0" : 2
                    },
                    "indices" : 3,
                    "material" : 0
                },
                {
                    "attributes" : {
                        "POSITION" : 4,
                        "NORMAL" : 5,
                        "TEXCOORD_0" : 6
                    },
                    "indices" : 7,
                    "material" : 1
                },
                {
                    "attributes" : {
                        "POSITION" : 8,
                        "NORMAL" : 9,
                        "TEXCOORD_0" : 10
                    },
                    "indices" : 11,
                    "material" : 2
                },
                {
                    "attributes" : {
                        "POSITION" : 12,
                        "NORMAL" : 13,
                        "TEXCOORD_0" : 14
                    },
                    "indices" : 15,
                    "material" : 3
                },
                {
                    "attributes" : {
                        "POSITION" : 16,
                        "NORMAL" : 17,
                        "TEXCOORD_0" : 18
                    },
                    "indices" : 19,
                    "material" : 4
                },
                {
                    "attributes" : {
                        "POSITION" : 20,
                        "NORMAL" : 21,
                        "TEXCOORD_0" : 22
                    },
                    "indices" : 23,
                    "material" : 5
                },
                {
                    "attributes" : {
                        "POSITION" : 24,
                        "NORMAL" : 25,
                        "TEXCOORD_0" : 26
                    },
                    "indices" : 27,
                    "material" : 6
                },
                {
                    "attributes" : {
                        "POSITION" : 28,
                        "NORMAL" : 29,
                        "TEXCOORD_0" : 30
                    },
                    "indices" : 31,
                    "material" : 7
                },
                {
                    "attributes" : {
                        "POSITION" : 32,
                        "NORMAL" : 33,
                        "TEXCOORD_0" : 34
                    },
                    "indices" : 35,
                    "material" : 8
                }
            ]
        }
    ],
    "textures" : [
        {
            "sampler" : 0,
            "source" : 0
        },
        {
            "sampler" : 0,
            "source" : 1
        },
        {
            "sampler" : 0,
            "source" : 2
        },
        {
            "sampler" : 0,
            "source" : 3
        },
        {
            "sampler" : 0,
            "source" : 4
        }
    ],
    "images" : [
        {
            "bufferView" : 4,
            "mimeType" : "image/jpeg",
            "name" : "flesh"
        },
        {
            "bufferView" : 9,
            "mimeType" : "image/jpeg",
            "name" : "fiber"
        },
        {
            "bufferView" : 18,
            "mimeType" : "image/jpeg",
            "name" : "scales"
        },
        {
            "bufferView" : 23,
            "mimeType" : "image/jpeg",
            "name" : "fur"
        },
        {
            "bufferView" : 32,
            "mimeType" : "image/jpeg",
            "name" : "leather"
        }
    ],
    "accessors" : [
        {
            "bufferView" : 0,
            "componentType" : 5126,
            "count" : 287,
            "max" : [
                0.03356524556875229,
                0.18952465057373047,
                0.19107362627983093
            ],
            "min" : [
                -0.02311059646308422,
                0.13905933499336243,
                0.10586577653884888
            ],
            "type" : "VEC3"
        },
        {
            "bufferView" : 1,
            "componentType" : 5126,
            "count" : 287,
            "type" : "VEC3"
        },
        {
            "bufferView" : 2,
            "componentType" : 5126,
            "count" : 287,
            "type" : "VEC2"
        },
        {
            "bufferView" : 3,
            "componentType" : 5123,
            "count" : 1047,
            "type" : "SCALAR"
        },
        {
            "bufferView" : 5,
            "componentType" : 5126,
            "count" : 2353,
            "max" : [
                0.055760420858860016,
                0.2644931375980377,
                0.1945572793483734
            ],
            "min" : [
                -0.05438836291432381,
                -0.011209435760974884,
                -0.2227737307548523
            ],
            "type" : "VEC3"
        },
        {
            "bufferView" : 6,
            "componentType" : 5126,
            "count" : 2353,
            "type" : "VEC3"
        },
        {
            "bufferView" : 7,
            "componentType" : 5126,
            "count" : 2353,
            "type" : "VEC2"
        },
        {
            "bufferView" : 8,
            "componentType" : 5123,
            "count" : 10782,
            "type" : "SCALAR"
        },
        {
            "bufferView" : 10,
            "componentType" : 5126,
            "count" : 146,
            "max" : [
                0.010889140889048576,
                0.12429835647344589,
                0.2080504596233368
            ],
            "min" : [
                -0.05271642282605171,
                0.03703968971967697,
                -0.10476690530776978
            ],
            "type" : "VEC3"
        },
        {
            "bufferView" : 11,
            "componentType" : 5126,
            "count" : 146,
            "type" : "VEC3"
        },
        {
            "bufferView" : 12,
            "componentType" : 5126,
            "count" : 146,
            "type" : "VEC2"
        },
        {
            "bufferView" : 13,
            "componentType" : 5123,
            "count" : 825,
            "type" : "SCALAR"
        },
        {
            "bufferView" : 14,
            "componentType" : 5126,
            "count" : 4218,
            "max" : [
                0.054875586181879044,
                0.2251145839691162,
                0.1946965456008911
            ],
            "min" : [
                -0.062218789011240005,
                -0.01830405741930008,
                -0.24826616048812866
            ],
            "type" : "VEC3"
        },
        {
            "bufferView" : 15,
            "componentType" : 5126,
            "count" : 4218,
            "type" : "VEC3"
        },
        {
            "bufferView" : 16,
            "componentType" : 5126,
            "count" : 4218,
            "type" : "VEC2"
        },
        {
            "bufferView" : 17,
            "componentType" : 5123,
            "count" : 19347,
            "type" : "SCALAR"
        },
        {
            "bufferView" : 19,
            "componentType" : 5126,
            "count" : 194,
            "max" : [
                0.028705867007374763,
                0.22382736206054688,
                0.108792245388031
            ],
            "min" : [
                -0.024947864934802055,
                0.18005773425102234,
                0.05802887678146362
            ],
            "type" : "VEC3"
        },
        {
            "bufferView" : 20,
            "componentType" : 5126,
            "count" : 194,
            "type" : "VEC3"
        },
        {
            "bufferView" : 21,
            "componentType" : 5126,
            "count" : 194,
            "type" : "VEC2"
        },
        {
            "bufferView" : 22,
            "componentType" : 5123,
            "count" : 813,
            "type" : "SCALAR"
        },
        {
            "bufferView" : 24,
            "componentType" : 5126,
            "count" : 788,
            "max" : [
                0.0535409152507782,
                0.18671926856040955,
                0.20180290937423706
            ],
            "min" : [
                -0.062218789011240005,
                -0.01960299164056778,
                -0.24989837408065796
            ],
            "type" : "VEC3"
        },
        {
            "bufferView" : 25,
            "componentType" : 5126,
            "count" : 788,
            "type" : "VEC3"
        },
        {
            "bufferView" : 26,
            "componentType" : 5126,
            "count" : 788,
            "type" : "VEC2"
        },
        {
            "bufferView" : 27,
            "componentType" : 5123,
            "count" : 3450,
            "type" : "SCALAR"
        },
        {
            "bufferView" : 28,
            "componentType" : 5126,
            "count" : 903,
            "max" : [
                0.023854229599237442,
                0.16853058338165283,
                0.08885222673416138
            ],
            "min" : [
                -0.020995479077100754,
                0.0638890489935875,
                -0.1744142770767212
            ],
            "type" : "VEC3"
        },
        {
            "bufferView" : 29,
            "componentType" : 5126,
            "count" : 903,
            "type" : "VEC3"
        },
        {
            "bufferView" : 30,
            "componentType" : 5126,
            "count" : 903,
            "type" : "VEC2"
        },
        {
            "bufferView" : 31,
            "componentType" : 5123,
            "count" : 3825,
            "type" : "SCALAR"
        },
        {
            "bufferView" : 33,
            "componentType" : 5126,
            "count" : 57,
            "max" : [
                0.02821236662566662,
                0.2075785994529724,
                0.13683843612670898
            ],
            "min" : [
                -0.018101893365383148,
                0.19704312086105347,
                0.12410706281661987
            ],
            "type" : "VEC3"
        },
        {
            "bufferView" : 34,
            "componentType" : 5126,
            "count" : 57,
            "type" : "VEC3"
        },
        {
            "bufferView" : 35,
            "componentType" : 5126,
            "count" : 57,
            "type" : "VEC2"
        },
        {
            "bufferView" : 36,
            "componentType" : 5123,
            "count" : 162,
            "type" : "SCALAR"
        },
        {
            "bufferView" : 37,
            "componentType" : 5126,
            "count" : 22,
            "max" : [
                0.025949768722057343,
                0.20632636547088623,
                0.135715514421463
            ],
            "min" : [
                -0.015919959172606468,
                0.19985580444335938,
                0.13213390111923218
            ],
            "type" : "VEC3"
        },
        {
            "bufferView" : 38,
            "componentType" : 5126,
            "count" : 22,
            "type" : "VEC3"
        },
        {
            "bufferView" : 39,
            "componentType" : 5126,
            "count" : 22,
            "type" : "VEC2"
        },
        {
            "bufferView" : 40,
            "componentType" : 5123,
            "count" : 60,
            "type" : "SCALAR"
        }
    ],
    "bufferViews" : [
        {
            "buffer" : 0,
            "byteLength" : 3444,
            "byteOffset" : 0
        },
        {
            "buffer" : 0,
            "byteLength" : 3444,
            "byteOffset" : 3444
        },
        {
            "buffer" : 0,
            "byteLength" : 2296,
            "byteOffset" : 6888
        },
        {
            "buffer" : 0,
            "byteLength" : 2094,
            "byteOffset" : 9184
        },
        {
            "buffer" : 0,
            "byteLength" : 1068865,
            "byteOffset" : 11280
        },
        {
            "buffer" : 0,
            "byteLength" : 28236,
            "byteOffset" : 1080148
        },
        {
            "buffer" : 0,
            "byteLength" : 28236,
            "byteOffset" : 1108384
        },
        {
            "buffer" : 0,
            "byteLength" : 18824,
            "byteOffset" : 1136620
        },
        {
            "buffer" : 0,
            "byteLength" : 21564,
            "byteOffset" : 1155444
        },
        {
            "buffer" : 0,
            "byteLength" : 38151,
            "byteOffset" : 1177008
        },
        {
            "buffer" : 0,
            "byteLength" : 1752,
            "byteOffset" : 1215160
        },
        {
            "buffer" : 0,
            "byteLength" : 1752,
            "byteOffset" : 1216912
        },
        {
            "buffer" : 0,
            "byteLength" : 1168,
            "byteOffset" : 1218664
        },
        {
            "buffer" : 0,
            "byteLength" : 1650,
            "byteOffset" : 1219832
        },
        {
            "buffer" : 0,
            "byteLength" : 50616,
            "byteOffset" : 1221484
        },
        {
            "buffer" : 0,
            "byteLength" : 50616,
            "byteOffset" : 1272100
        },
        {
            "buffer" : 0,
            "byteLength" : 33744,
            "byteOffset" : 1322716
        },
        {
            "buffer" : 0,
            "byteLength" : 38694,
            "byteOffset" : 1356460
        },
        {
            "buffer" : 0,
            "byteLength" : 217784,
            "byteOffset" : 1395156
        },
        {
            "buffer" : 0,
            "byteLength" : 2328,
            "byteOffset" : 1612940
        },
        {
            "buffer" : 0,
            "byteLength" : 2328,
            "byteOffset" : 1615268
        },
        {
            "buffer" : 0,
            "byteLength" : 1552,
            "byteOffset" : 1617596
        },
        {
            "buffer" : 0,
            "byteLength" : 1626,
            "byteOffset" : 1619148
        },
        {
            "buffer" : 0,
            "byteLength" : 671029,
            "byteOffset" : 1620776
        },
        {
            "buffer" : 0,
            "byteLength" : 9456,
            "byteOffset" : 2291808
        },
        {
            "buffer" : 0,
            "byteLength" : 9456,
            "byteOffset" : 2301264
        },
        {
            "buffer" : 0,
            "byteLength" : 6304,
            "byteOffset" : 2310720
        },
        {
            "buffer" : 0,
            "byteLength" : 6900,
            "byteOffset" : 2317024
        },
        {
            "buffer" : 0,
            "byteLength" : 10836,
            "byteOffset" : 2323924
        },
        {
            "buffer" : 0,
            "byteLength" : 10836,
            "byteOffset" : 2334760
        },
        {
            "buffer" : 0,
            "byteLength" : 7224,
            "byteOffset" : 2345596
        },
        {
            "buffer" : 0,
            "byteLength" : 7650,
            "byteOffset" : 2352820
        },
        {
            "buffer" : 0,
            "byteLength" : 133666,
            "byteOffset" : 2360472
        },
        {
            "buffer" : 0,
            "byteLength" : 684,
            "byteOffset" : 2494140
        },
        {
            "buffer" : 0,
            "byteLength" : 684,
            "byteOffset" : 2494824
        },
        {
            "buffer" : 0,
            "byteLength" : 456,
            "byteOffset" : 2495508
        },
        {
            "buffer" : 0,
            "byteLength" : 324,
            "byteOffset" : 2495964
        },
        {
            "buffer" : 0,
            "byteLength" : 264,
            "byteOffset" : 2496288
        },
        {
            "buffer" : 0,
            "byteLength" : 264,
            "byteOffset" : 2496552
        },
        {
            "buffer" : 0,
            "byteLength" : 176,
            "byteOffset" : 2496816
        },
        {
            "buffer" : 0,
            "byteLength" : 120,
            "byteOffset" : 2496992
        }
    ],
    "samplers" : [
        {
            "magFilter" : 9729,
            "minFilter" : 9987
        }
    ],
    "buffers" : [
        {
            "byteLength" : 2497112,
            "uri" : "data:application/octet-stream;base64,"
        }
    ]
}
