{
    "asset" : {
        "generator" : "Khronos glTF Blender I/O v1.5.17",
        "version" : "2.0"
    },
    "scene" : 0,
    "scenes" : [
        {
            "name" : "Scene",
            "nodes" : [
                0,
                1,
                2,
                3
            ]
        }
    ],
    "nodes" : [
        {
            "mesh" : 0,
            "name" : "Sol"
        },
        {
            "mesh" : 1,
            "name" : "Murs"
        },
        {
            "mesh" : 2,
            "name" : "Toit",
            "rotation" : [
                1,
                0,
                0,
                -1.6292068494294654e-07
            ],
            "translation" : [
                0,
                5,
                -51.5
            ]
        },
        {
            "mesh" : 3,
            "name" : "Renfocements"
        }
    ],
    "materials" : [
        {
            "doubleSided" : true,
            "name" : "sol",
            "pbrMetallicRoughness" : {
                "baseColorTexture" : {
                    "index" : 0
                },
                "metallicFactor" : 0,
                "roughnessFactor" : 0.4000000059604645
            }
        },
        {
            "doubleSided" : true,
            "name" : "murs",
            "pbrMetallicRoughness" : {
                "baseColorTexture" : {
                    "index" : 1
                },
                "metallicFactor" : 0,
                "roughnessFactor" : 0.5
            }
        },
        {
            "doubleSided" : true,
            "name" : "plafond",
            "pbrMetallicRoughness" : {
                "baseColorTexture" : {
                    "index" : 2
                },
                "metallicFactor" : 0,
                "roughnessFactor" : 0.5
            }
        },
        {
            "doubleSided" : true,
            "name" : "Renfoncements",
            "pbrMetallicRoughness" : {
                "baseColorTexture" : {
                    "index" : 3
                },
                "metallicFactor" : 0,
                "roughnessFactor" : 0.5
            }
        },
        {
            "doubleSided" : true,
            "name" : "Granit",
            "pbrMetallicRoughness" : {
                "baseColorTexture" : {
                    "index" : 4
                },
                "metallicFactor" : 0,
                "roughnessFactor" : 0.5
            }
        }
    ],
    "meshes" : [
        {
            "name" : "Cube",
            "primitives" : [
                {
                    "attributes" : {
                        "POSITION" : 0,
                        "NORMAL" : 1,
                        "TEXCOORD_0" : 2
                    },
                    "indices" : 3,
                    "material" : 0
                }
            ]
        },
        {
            "name" : "Cube.002",
            "primitives" : [
                {
                    "attributes" : {
                        "POSITION" : 4,
                        "NORMAL" : 5,
                        "TEXCOORD_0" : 6
                    },
                    "indices" : 7,
                    "material" : 1
                }
            ]
        },
        {
            "name" : "Cube.004",
            "primitives" : [
                {
                    "attributes" : {
                        "POSITION" : 8,
                        "NORMAL" : 9,
                        "TEXCOORD_0" : 10
                    },
                    "indices" : 3,
                    "material" : 2
                }
            ]
        },
        {
            "name" : "Cube.005",
            "primitives" : [
                {
                    "attributes" : {
                        "POSITION" : 11,
                        "NORMAL" : 12,
                        "TEXCOORD_0" : 13
                    },
                    "indices" : 14,
                    "material" : 3
                },
                {
                    "attributes" : {
                        "POSITION" : 15,
                        "NORMAL" : 16,
                        "TEXCOORD_0" : 17
                    },
                    "indices" : 18,
                    "material" : 4
                }
            ]
        }
    ],
    "textures" : [
        {
            "sampler" : 0,
            "source" : 0
        },
        {
            "sampler" : 0,
            "source" : 1
        },
        {
            "sampler" : 0,
            "source" : 2
        },
        {
            "sampler" : 0,
            "source" : 3
        },
        {
            "sampler" : 0,
            "source" : 4
        }
    ],
    "images" : [
        {
            "bufferView" : 4,
            "mimeType" : "image/jpeg",
            "name" : "corridor-ground"
        },
        {
            "bufferView" : 9,
            "mimeType" : "image/jpeg",
            "name" : "wall"
        },
        {
            "bufferView" : 13,
            "mimeType" : "image/jpeg",
            "name" : "toitHall"
        },
        {
            "bufferView" : 18,
            "mimeType" : "image/jpeg",
            "name" : "recess-wall"
        },
        {
            "bufferView" : 23,
            "mimeType" : "image/jpeg",
            "name" : "recess-ground"
        }
    ],
    "accessors" : [
        {
            "bufferView" : 0,
            "componentType" : 5126,
            "count" : 4,
            "max" : [
                3,
                0,
                0
            ],
            "min" : [
                -3,
                0,
                -51.5
            ],
            "type" : "VEC3"
        },
        {
            "bufferView" : 1,
            "componentType" : 5126,
            "count" : 4,
            "type" : "VEC3"
        },
        {
            "bufferView" : 2,
            "componentType" : 5126,
            "count" : 4,
            "type" : "VEC2"
        },
        {
            "bufferView" : 3,
            "componentType" : 5123,
            "count" : 6,
            "type" : "SCALAR"
        },
        {
            "bufferView" : 5,
            "componentType" : 5126,
            "count" : 146,
            "max" : [
                3.000002145767212,
                5,
                0
            ],
            "min" : [
                -3,
                0,
                -51.5
            ],
            "type" : "VEC3"
        },
        {
            "bufferView" : 6,
            "componentType" : 5126,
            "count" : 146,
            "type" : "VEC3"
        },
        {
            "bufferView" : 7,
            "componentType" : 5126,
            "count" : 146,
            "type" : "VEC2"
        },
        {
            "bufferView" : 8,
            "componentType" : 5123,
            "count" : 258,
            "type" : "SCALAR"
        },
        {
            "bufferView" : 10,
            "componentType" : 5126,
            "count" : 4,
            "max" : [
                3,
                1.2383087266698567e-07,
                0
            ],
            "min" : [
                -3,
                0,
                -50.5
            ],
            "type" : "VEC3"
        },
        {
            "bufferView" : 11,
            "componentType" : 5126,
            "count" : 4,
            "type" : "VEC3"
        },
        {
            "bufferView" : 12,
            "componentType" : 5126,
            "count" : 4,
            "type" : "VEC2"
        },
        {
            "bufferView" : 14,
            "componentType" : 5126,
            "count" : 128,
            "max" : [
                5.000000476837158,
                4,
                -1.4998836517333984
            ],
            "min" : [
                -5,
                0.7999999523162842,
                -49.00011444091797
            ],
            "type" : "VEC3"
        },
        {
            "bufferView" : 15,
            "componentType" : 5126,
            "count" : 128,
            "type" : "VEC3"
        },
        {
            "bufferView" : 16,
            "componentType" : 5126,
            "count" : 128,
            "type" : "VEC2"
        },
        {
            "bufferView" : 17,
            "componentType" : 5123,
            "count" : 192,
            "type" : "SCALAR"
        },
        {
            "bufferView" : 19,
            "componentType" : 5126,
            "count" : 32,
            "max" : [
                5,
                0.7999999523162842,
                -1.4998836517333984
            ],
            "min" : [
                -5,
                0.7999999523162842,
                -49.00011444091797
            ],
            "type" : "VEC3"
        },
        {
            "bufferView" : 20,
            "componentType" : 5126,
            "count" : 32,
            "type" : "VEC3"
        },
        {
            "bufferView" : 21,
            "componentType" : 5126,
            "count" : 32,
            "type" : "VEC2"
        },
        {
            "bufferView" : 22,
            "componentType" : 5123,
            "count" : 48,
            "type" : "SCALAR"
        }
    ],
    "bufferViews" : [
        {
            "buffer" : 0,
            "byteLength" : 48,
            "byteOffset" : 0
        },
        {
            "buffer" : 0,
            "byteLength" : 48,
            "byteOffset" : 48
        },
        {
            "buffer" : 0,
            "byteLength" : 32,
            "byteOffset" : 96
        },
        {
            "buffer" : 0,
            "byteLength" : 12,
            "byteOffset" : 128
        },
        {
            "buffer" : 0,
            "byteLength" : 59709,
            "byteOffset" : 140
        },
        {
            "buffer" : 0,
            "byteLength" : 1752,
            "byteOffset" : 59852
        },
        {
            "buffer" : 0,
            "byteLength" : 1752,
            "byteOffset" : 61604
        },
        {
            "buffer" : 0,
            "byteLength" : 1168,
            "byteOffset" : 63356
        },
        {
            "buffer" : 0,
            "byteLength" : 516,
            "byteOffset" : 64524
        },
        {
            "buffer" : 0,
            "byteLength" : 68131,
            "byteOffset" : 65040
        },
        {
            "buffer" : 0,
            "byteLength" : 48,
            "byteOffset" : 133172
        },
        {
            "buffer" : 0,
            "byteLength" : 48,
            "byteOffset" : 133220
        },
        {
            "buffer" : 0,
            "byteLength" : 32,
            "byteOffset" : 133268
        },
        {
            "buffer" : 0,
            "byteLength" : 48354,
            "byteOffset" : 133300
        },
        {
            "buffer" : 0,
            "byteLength" : 1536,
            "byteOffset" : 181656
        },
        {
            "buffer" : 0,
            "byteLength" : 1536,
            "byteOffset" : 183192
        },
        {
            "buffer" : 0,
            "byteLength" : 1024,
            "byteOffset" : 184728
        },
        {
            "buffer" : 0,
            "byteLength" : 384,
            "byteOffset" : 185752
        },
        {
            "buffer" : 0,
            "byteLength" : 337352,
            "byteOffset" : 186136
        },
        {
            "buffer" : 0,
            "byteLength" : 384,
            "byteOffset" : 523488
        },
        {
            "buffer" : 0,
            "byteLength" : 384,
            "byteOffset" : 523872
        },
        {
            "buffer" : 0,
            "byteLength" : 256,
            "byteOffset" : 524256
        },
        {
            "buffer" : 0,
            "byteLength" : 96,
            "byteOffset" : 524512
        },
        {
            "buffer" : 0,
            "byteLength" : 164937,
            "byteOffset" : 524608
        }
    ],
    "samplers" : [
        {
            "magFilter" : 9729,
            "minFilter" : 9987
        }
    ],
    "buffers" : [
        {
            "byteLength" : 689548,
            "uri" : "data:application/octet-stream;base64,"
        }
    ]
}
