{
    "asset" : {
        "generator" : "Khronos glTF Blender I/O v1.5.17",
        "version" : "2.0"
    },
    "scene" : 0,
    "scenes" : [
        {
            "name" : "Scene",
            "nodes" : [
                0,
                1
            ]
        }
    ],
    "nodes" : [
        {
            "mesh" : 0,
            "name" : "Mur et sol"
        },
        {
            "mesh" : 1,
            "name" : "Plafond"
        }
    ],
    "materials" : [
        {
            "doubleSided" : true,
            "name" : "Ground",
            "pbrMetallicRoughness" : {
                "baseColorTexture" : {
                    "index" : 0
                },
                "metallicFactor" : 0,
                "roughnessFactor" : 0.4000000059604645
            }
        },
        {
            "doubleSided" : true,
            "name" : "Murs",
            "pbrMetallicRoughness" : {
                "baseColorTexture" : {
                    "index" : 1
                },
                "metallicFactor" : 0,
                "roughnessFactor" : 0.5
            }
        },
        {
            "doubleSided" : true,
            "name" : "wip",
            "pbrMetallicRoughness" : {
                "baseColorTexture" : {
                    "index" : 2
                },
                "metallicFactor" : 0,
                "roughnessFactor" : 0.5
            }
        },
        {
            "doubleSided" : true,
            "name" : "Poutres",
            "pbrMetallicRoughness" : {
                "baseColorTexture" : {
                    "index" : 3
                },
                "metallicFactor" : 0,
                "roughnessFactor" : 0.5
            }
        },
        {
            "doubleSided" : true,
            "name" : "Metal",
            "pbrMetallicRoughness" : {
                "baseColorTexture" : {
                    "index" : 4
                },
                "metallicFactor" : 0,
                "roughnessFactor" : 0.5
            }
        },
        {
            "doubleSided" : true,
            "name" : "Plafond",
            "pbrMetallicRoughness" : {
                "baseColorTexture" : {
                    "index" : 5
                },
                "metallicFactor" : 0,
                "roughnessFactor" : 0.5
            }
        },
        {
            "doubleSided" : true,
            "name" : "Sky",
            "pbrMetallicRoughness" : {
                "baseColorTexture" : {
                    "index" : 6
                },
                "metallicFactor" : 0,
                "roughnessFactor" : 0.5
            }
        }
    ],
    "meshes" : [
        {
            "name" : "Cube",
            "primitives" : [
                {
                    "attributes" : {
                        "POSITION" : 0,
                        "NORMAL" : 1,
                        "TEXCOORD_0" : 2
                    },
                    "indices" : 3,
                    "material" : 0
                },
                {
                    "attributes" : {
                        "POSITION" : 4,
                        "NORMAL" : 5,
                        "TEXCOORD_0" : 6
                    },
                    "indices" : 7,
                    "material" : 1
                },
                {
                    "attributes" : {
                        "POSITION" : 8,
                        "NORMAL" : 9,
                        "TEXCOORD_0" : 10
                    },
                    "indices" : 11,
                    "material" : 2
                }
            ]
        },
        {
            "name" : "Cube.001",
            "primitives" : [
                {
                    "attributes" : {
                        "POSITION" : 12,
                        "NORMAL" : 13,
                        "TEXCOORD_0" : 14
                    },
                    "indices" : 15,
                    "material" : 3
                },
                {
                    "attributes" : {
                        "POSITION" : 16,
                        "NORMAL" : 17,
                        "TEXCOORD_0" : 18
                    },
                    "indices" : 19,
                    "material" : 4
                },
                {
                    "attributes" : {
                        "POSITION" : 20,
                        "NORMAL" : 21,
                        "TEXCOORD_0" : 22
                    },
                    "indices" : 23,
                    "material" : 5
                },
                {
                    "attributes" : {
                        "POSITION" : 24,
                        "NORMAL" : 25,
                        "TEXCOORD_0" : 26
                    },
                    "indices" : 27,
                    "material" : 6
                }
            ]
        }
    ],
    "textures" : [
        {
            "sampler" : 0,
            "source" : 0
        },
        {
            "sampler" : 0,
            "source" : 1
        },
        {
            "sampler" : 0,
            "source" : 2
        },
        {
            "sampler" : 0,
            "source" : 3
        },
        {
            "sampler" : 0,
            "source" : 4
        },
        {
            "sampler" : 0,
            "source" : 5
        },
        {
            "sampler" : 0,
            "source" : 6
        }
    ],
    "images" : [
        {
            "bufferView" : 4,
            "mimeType" : "image/jpeg",
            "name" : "hall-ground"
        },
        {
            "bufferView" : 9,
            "mimeType" : "image/jpeg",
            "name" : "wall"
        },
        {
            "bufferView" : 14,
            "mimeType" : "image/jpeg",
            "name" : "wip"
        },
        {
            "bufferView" : 19,
            "mimeType" : "image/jpeg",
            "name" : "hall-beam"
        },
        {
            "bufferView" : 24,
            "mimeType" : "image/jpeg",
            "name" : "hall-hidden"
        },
        {
            "bufferView" : 29,
            "mimeType" : "image/jpeg",
            "name" : "toitHall"
        },
        {
            "bufferView" : 34,
            "mimeType" : "image/jpeg",
            "name" : "sky"
        }
    ],
    "accessors" : [
        {
            "bufferView" : 0,
            "componentType" : 5126,
            "count" : 4,
            "max" : [
                7.5,
                1.1920928955078125e-07,
                7.5
            ],
            "min" : [
                -7.5,
                0,
                -7.5
            ],
            "type" : "VEC3"
        },
        {
            "bufferView" : 1,
            "componentType" : 5126,
            "count" : 4,
            "type" : "VEC3"
        },
        {
            "bufferView" : 2,
            "componentType" : 5126,
            "count" : 4,
            "type" : "VEC2"
        },
        {
            "bufferView" : 3,
            "componentType" : 5123,
            "count" : 6,
            "type" : "SCALAR"
        },
        {
            "bufferView" : 5,
            "componentType" : 5126,
            "count" : 32,
            "max" : [
                7.5,
                5,
                7.5
            ],
            "min" : [
                -7.5,
                0,
                -7.500000953674316
            ],
            "type" : "VEC3"
        },
        {
            "bufferView" : 6,
            "componentType" : 5126,
            "count" : 32,
            "type" : "VEC3"
        },
        {
            "bufferView" : 7,
            "componentType" : 5126,
            "count" : 32,
            "type" : "VEC2"
        },
        {
            "bufferView" : 8,
            "componentType" : 5123,
            "count" : 48,
            "type" : "SCALAR"
        },
        {
            "bufferView" : 10,
            "componentType" : 5126,
            "count" : 4,
            "max" : [
                -7.5,
                5,
                3
            ],
            "min" : [
                -7.5,
                0,
                -3
            ],
            "type" : "VEC3"
        },
        {
            "bufferView" : 11,
            "componentType" : 5126,
            "count" : 4,
            "type" : "VEC3"
        },
        {
            "bufferView" : 12,
            "componentType" : 5126,
            "count" : 4,
            "type" : "VEC2"
        },
        {
            "bufferView" : 13,
            "componentType" : 5123,
            "count" : 6,
            "type" : "SCALAR"
        },
        {
            "bufferView" : 15,
            "componentType" : 5126,
            "count" : 32,
            "max" : [
                8.5,
                6,
                8.5
            ],
            "min" : [
                -8.5,
                5,
                -8.5
            ],
            "type" : "VEC3"
        },
        {
            "bufferView" : 16,
            "componentType" : 5126,
            "count" : 32,
            "type" : "VEC3"
        },
        {
            "bufferView" : 17,
            "componentType" : 5126,
            "count" : 32,
            "type" : "VEC2"
        },
        {
            "bufferView" : 18,
            "componentType" : 5123,
            "count" : 48,
            "type" : "SCALAR"
        },
        {
            "bufferView" : 20,
            "componentType" : 5126,
            "count" : 16,
            "max" : [
                8.5,
                7,
                8.5
            ],
            "min" : [
                -8.5,
                5,
                -8.5
            ],
            "type" : "VEC3"
        },
        {
            "bufferView" : 21,
            "componentType" : 5126,
            "count" : 16,
            "type" : "VEC3"
        },
        {
            "bufferView" : 22,
            "componentType" : 5126,
            "count" : 16,
            "type" : "VEC2"
        },
        {
            "bufferView" : 23,
            "componentType" : 5123,
            "count" : 24,
            "type" : "SCALAR"
        },
        {
            "bufferView" : 25,
            "componentType" : 5126,
            "count" : 108,
            "max" : [
                8.5,
                7,
                8.5
            ],
            "min" : [
                -8.5,
                6.998339653015137,
                -8.5
            ],
            "type" : "VEC3"
        },
        {
            "bufferView" : 26,
            "componentType" : 5126,
            "count" : 108,
            "type" : "VEC3"
        },
        {
            "bufferView" : 27,
            "componentType" : 5126,
            "count" : 108,
            "type" : "VEC2"
        },
        {
            "bufferView" : 28,
            "componentType" : 5123,
            "count" : 108,
            "type" : "SCALAR"
        },
        {
            "bufferView" : 30,
            "componentType" : 5126,
            "count" : 480,
            "max" : [
                6.35327672958374,
                10.498348236083984,
                6.353277206420898
            ],
            "min" : [
                -6.353275775909424,
                6.998339653015137,
                -6.353274345397949
            ],
            "type" : "VEC3"
        },
        {
            "bufferView" : 31,
            "componentType" : 5126,
            "count" : 480,
            "type" : "VEC3"
        },
        {
            "bufferView" : 32,
            "componentType" : 5126,
            "count" : 480,
            "type" : "VEC2"
        },
        {
            "bufferView" : 33,
            "componentType" : 5123,
            "count" : 672,
            "type" : "SCALAR"
        }
    ],
    "bufferViews" : [
        {
            "buffer" : 0,
            "byteLength" : 48,
            "byteOffset" : 0
        },
        {
            "buffer" : 0,
            "byteLength" : 48,
            "byteOffset" : 48
        },
        {
            "buffer" : 0,
            "byteLength" : 32,
            "byteOffset" : 96
        },
        {
            "buffer" : 0,
            "byteLength" : 12,
            "byteOffset" : 128
        },
        {
            "buffer" : 0,
            "byteLength" : 14880,
            "byteOffset" : 140
        },
        {
            "buffer" : 0,
            "byteLength" : 384,
            "byteOffset" : 15020
        },
        {
            "buffer" : 0,
            "byteLength" : 384,
            "byteOffset" : 15404
        },
        {
            "buffer" : 0,
            "byteLength" : 256,
            "byteOffset" : 15788
        },
        {
            "buffer" : 0,
            "byteLength" : 96,
            "byteOffset" : 16044
        },
        {
            "buffer" : 0,
            "byteLength" : 68131,
            "byteOffset" : 16140
        },
        {
            "buffer" : 0,
            "byteLength" : 48,
            "byteOffset" : 84272
        },
        {
            "buffer" : 0,
            "byteLength" : 48,
            "byteOffset" : 84320
        },
        {
            "buffer" : 0,
            "byteLength" : 32,
            "byteOffset" : 84368
        },
        {
            "buffer" : 0,
            "byteLength" : 12,
            "byteOffset" : 84400
        },
        {
            "buffer" : 0,
            "byteLength" : 561065,
            "byteOffset" : 84412
        },
        {
            "buffer" : 0,
            "byteLength" : 384,
            "byteOffset" : 645480
        },
        {
            "buffer" : 0,
            "byteLength" : 384,
            "byteOffset" : 645864
        },
        {
            "buffer" : 0,
            "byteLength" : 256,
            "byteOffset" : 646248
        },
        {
            "buffer" : 0,
            "byteLength" : 96,
            "byteOffset" : 646504
        },
        {
            "buffer" : 0,
            "byteLength" : 113930,
            "byteOffset" : 646600
        },
        {
            "buffer" : 0,
            "byteLength" : 192,
            "byteOffset" : 760532
        },
        {
            "buffer" : 0,
            "byteLength" : 192,
            "byteOffset" : 760724
        },
        {
            "buffer" : 0,
            "byteLength" : 128,
            "byteOffset" : 760916
        },
        {
            "buffer" : 0,
            "byteLength" : 48,
            "byteOffset" : 761044
        },
        {
            "buffer" : 0,
            "byteLength" : 652722,
            "byteOffset" : 761092
        },
        {
            "buffer" : 0,
            "byteLength" : 1296,
            "byteOffset" : 1413816
        },
        {
            "buffer" : 0,
            "byteLength" : 1296,
            "byteOffset" : 1415112
        },
        {
            "buffer" : 0,
            "byteLength" : 864,
            "byteOffset" : 1416408
        },
        {
            "buffer" : 0,
            "byteLength" : 216,
            "byteOffset" : 1417272
        },
        {
            "buffer" : 0,
            "byteLength" : 48354,
            "byteOffset" : 1417488
        },
        {
            "buffer" : 0,
            "byteLength" : 5760,
            "byteOffset" : 1465844
        },
        {
            "buffer" : 0,
            "byteLength" : 5760,
            "byteOffset" : 1471604
        },
        {
            "buffer" : 0,
            "byteLength" : 3840,
            "byteOffset" : 1477364
        },
        {
            "buffer" : 0,
            "byteLength" : 1344,
            "byteOffset" : 1481204
        },
        {
            "buffer" : 0,
            "byteLength" : 45597,
            "byteOffset" : 1482548
        }
    ],
    "samplers" : [
        {
            "magFilter" : 9729,
            "minFilter" : 9987
        }
    ],
    "buffers" : [
        {
            "byteLength" : 1528148,
            "uri" : "data:application/octet-stream;base64,"
        }
    ]
}
