{
  "accessors": [
    {
      "bufferView": 2,
      "componentType": 5126,
      "count": 22932,
      "max": [
        0.98816686868667603,
        0.86886483430862427,
        2.5433714389801025
      ],
      "min": [
        -0.83447486162185669,
        -0.97630167007446289,
        0.00055355322547256947
      ],
      "type": "VEC3"
    },
    {
      "bufferView": 2,
      "byteOffset": 275184,
      "componentType": 5126,
      "count": 22932,
      "max": [
        1,
        1,
        0.99992501735687256
      ],
      "min": [
        -1,
        -1,
        -1
      ],
      "type": "VEC3"
    },
    {
      "bufferView": 3,
      "componentType": 5126,
      "count": 22932,
      "max": [
        0.9999459981918335,
        0.99999773502349854,
        0.99999743700027466,
        1
      ],
      "min": [
        -0.99996751546859741,
        -0.99994379281997681,
        -0.99992239475250244,
        -1
      ],
      "type": "VEC4"
    },
    {
      "bufferView": 1,
      "componentType": 5126,
      "count": 22932,
      "max": [
        0.99578672647476196,
        0.99601525068283081
      ],
      "min": [
        0.0039849411696195602,
        0.0039849411696195602
      ],
      "type": "VEC2"
    },
    {
      "bufferView": 1,
      "byteOffset": 183456,
      "componentType": 5126,
      "count": 22932,
      "max": [
        0.99578672647476196,
        0.99601525068283081
      ],
      "min": [
        0.0039849411696195602,
        0.0039849411696195602
      ],
      "type": "VEC2"
    },
    {
      "bufferView": 1,
      "byteOffset": 366912,
      "componentType": 5126,
      "count": 22932,
      "max": [
        0.99578672647476196,
        0.99601525068283081
      ],
      "min": [
        0.0039849411696195602,
        0.0039849411696195602
      ],
      "type": "VEC2"
    },
    {
      "bufferView": 0,
      "componentType": 5125,
      "count": 114282,
      "max": [
        22931
      ],
      "min": [
        0
      ],
      "type": "SCALAR"
    }
  ],
  "asset": {
    "extras": {
      "author": "SomeKevin (https://sketchfab.com/SomeKevin)",
      "license": "CC-BY-4.0 (http://creativecommons.org/licenses/by/4.0/)",
      "source": "https://sketchfab.com/3d-models/palm-plant-fc5680053bb54ff6bacae64be12200ad",
      "title": "Palm Plant"
    },
    "generator": "Sketchfab-9.37.0",
    "version": "2.0"
  },
  "bufferViews": [
    {
      "buffer": 0,
      "byteLength": 457128,
      "byteOffset": 0,
      "name": "floatBufferViews",
      "target": 34963
    },
    {
      "buffer": 0,
      "byteLength": 550368,
      "byteOffset": 457128,
      "byteStride": 8,
      "name": "floatBufferViews",
      "target": 34962
    },
    {
      "buffer": 0,
      "byteLength": 550368,
      "byteOffset": 1007496,
      "byteStride": 12,
      "name": "floatBufferViews",
      "target": 34962
    },
    {
      "buffer": 0,
      "byteLength": 366912,
      "byteOffset": 1557864,
      "byteStride": 16,
      "name": "floatBufferViews",
      "target": 34962
    }
  ],
  "buffers": [
    {
      "byteLength": 1924776,
      "uri": "scene.bin"
    }
  ],
  "extensionsRequired": [
    "KHR_materials_pbrSpecularGlossiness"
  ],
  "extensionsUsed": [
    "KHR_materials_pbrSpecularGlossiness"
  ],
  "images": [
    {
      "uri": "textures/Pflanzenmaterial_diffuse.png"
    },
    {
      "uri": "textures/Pflanzenmaterial_specularGlossiness.png"
    },
    {
      "uri": "textures/Pflanzenmaterial_normal.png"
    }
  ],
  "materials": [
    {
      "doubleSided": true,
      "extensions": {
        "KHR_materials_pbrSpecularGlossiness": {
          "diffuseFactor": [
            1,
            1,
            1,
            1
          ],
          "diffuseTexture": {
            "index": 0,
            "texCoord": 0
          },
          "glossinessFactor": 1,
          "specularFactor": [
            0,
            0,
            0
          ],
          "specularGlossinessTexture": {
            "index": 1,
            "texCoord": 0
          }
        }
      },
      "name": "Pflanzenmaterial",
      "normalTexture": {
        "index": 2,
        "scale": 1,
        "texCoord": 0
      }
    }
  ],
  "meshes": [
    {
      "name": "Pflanze_Pflanzenmaterial_0",
      "primitives": [
        {
          "attributes": {
            "NORMAL": 1,
            "POSITION": 0,
            "TANGENT": 2,
            "TEXCOORD_0": 3,
            "TEXCOORD_1": 4,
            "TEXCOORD_2": 5
          },
          "indices": 6,
          "material": 0,
          "mode": 4
        }
      ]
    }
  ],
  "nodes": [
    {
      "children": [
        1
      ],
      "name": "RootNode (gltf orientation matrix)",
      "rotation": [
        -0.70710678118654746,
        -0,
        -0,
        0.70710678118654757
      ]
    },
    {
      "children": [
        2
      ],
      "name": "RootNode (model correction matrix)"
    },
    {
      "children": [
        3
      ],
      "matrix": [
        1,
        0,
        0,
        0,
        0,
        0,
        1,
        0,
        0,
        -1,
        0,
        0,
        0,
        0,
        0,
        1
      ],
      "name": "0df639923a714f738de46552ef297b03.fbx"
    },
    {
      "children": [
        4
      ],
      "name": "RootNode"
    },
    {
      "children": [
        5
      ],
      "matrix": [
        30.71553237721869,
        -5.5511151231257827e-15,
        -95.165939656917331,
        0,
        -95.165939656916066,
        -1.6292067961387602e-05,
        -30.715532377218285,
        0,
        -1.5504499562002394e-05,
        99.999999999998664,
        -5.0041954136048616e-06,
        0,
        0,
        0,
        0,
        1
      ],
      "name": "Pflanze"
    },
    {
      "mesh": 0,
      "name": "Pflanze_Pflanzenmaterial_0"
    }
  ],
  "samplers": [
    {
      "magFilter": 9729,
      "minFilter": 9987,
      "wrapS": 10497,
      "wrapT": 10497
    }
  ],
  "scene": 0,
  "scenes": [
    {
      "name": "OSG_Scene",
      "nodes": [
        0
      ]
    }
  ],
  "textures": [
    {
      "sampler": 0,
      "source": 0
    },
    {
      "sampler": 0,
      "source": 1
    },
    {
      "sampler": 0,
      "source": 2
    }
  ]
}

