{
    "asset" : {
        "generator" : "Khronos glTF Blender I/O v1.5.17",
        "version" : "2.0"
    },
    "scene" : 0,
    "scenes" : [
        {
            "name" : "Scene",
            "nodes" : [
                1
            ]
        }
    ],
    "nodes" : [
        {
            "mesh" : 0,
            "name" : "Pflanze_Pflanzenmaterial_0"
        },
        {
            "children" : [
                0
            ],
            "name" : "plante",
            "rotation" : [
                -0.5716544985771179,
                0.41618645191192627,
                0.41618654131889343,
                0.5716544389724731
            ],
            "scale" : [
                100,
                100,
                100
            ]
        }
    ],
    "materials" : [
        {
            "doubleSided" : true,
            "name" : "Pflanzenmaterial",
            "pbrMetallicRoughness" : {}
        }
    ],
    "meshes" : [
        {
            "name" : "Pflanze_Pflanzenmaterial_0",
            "primitives" : [
                {
                    "attributes" : {
                        "POSITION" : 0,
                        "NORMAL" : 1,
                        "TEXCOORD_0" : 2,
                        "TEXCOORD_1" : 3,
                        "TEXCOORD_2" : 4
                    },
                    "indices" : 5,
                    "material" : 0
                }
            ]
        }
    ],
    "accessors" : [
        {
            "bufferView" : 0,
            "componentType" : 5126,
            "count" : 10852,
            "max" : [
                0.9868903160095215,
                0.8690049052238464,
                2.543297290802002
            ],
            "min" : [
                -0.8344876766204834,
                -0.9762395024299622,
                0.0005512947682291269
            ],
            "type" : "VEC3"
        },
        {
            "bufferView" : 1,
            "componentType" : 5126,
            "count" : 10852,
            "type" : "VEC3"
        },
        {
            "bufferView" : 2,
            "componentType" : 5126,
            "count" : 10852,
            "type" : "VEC2"
        },
        {
            "bufferView" : 3,
            "componentType" : 5126,
            "count" : 10852,
            "type" : "VEC2"
        },
        {
            "bufferView" : 4,
            "componentType" : 5126,
            "count" : 10852,
            "type" : "VEC2"
        },
        {
            "bufferView" : 5,
            "componentType" : 5123,
            "count" : 44985,
            "type" : "SCALAR"
        }
    ],
    "bufferViews" : [
        {
            "buffer" : 0,
            "byteLength" : 130224,
            "byteOffset" : 0
        },
        {
            "buffer" : 0,
            "byteLength" : 130224,
            "byteOffset" : 130224
        },
        {
            "buffer" : 0,
            "byteLength" : 86816,
            "byteOffset" : 260448
        },
        {
            "buffer" : 0,
            "byteLength" : 86816,
            "byteOffset" : 347264
        },
        {
            "buffer" : 0,
            "byteLength" : 86816,
            "byteOffset" : 434080
        },
        {
            "buffer" : 0,
            "byteLength" : 89970,
            "byteOffset" : 520896
        }
    ],
    "buffers" : [
        {
            "byteLength" : 610868,
            "uri" : "data:application/octet-stream;base64,"
        }
    ]
}
