{
  "accessors": [
    {
      "bufferView": 2,
      "componentType": 5126,
      "count": 174,
      "max": [
        4.2552871704101562,
        2.9010839462280273,
        10.044655799865723
      ],
      "min": [
        3.0283968448638916,
        0.71976995468139648,
        3.5566790103912354
      ],
      "type": "VEC3"
    },
    {
      "bufferView": 2,
      "byteOffset": 2088,
      "componentType": 5126,
      "count": 174,
      "max": [
        0.99300664663314819,
        0.99212533235549927,
        0.96829450130462646
      ],
      "min": [
        -0.99300664663314819,
        -0.98369336128234863,
        -0.97907799482345581
      ],
      "type": "VEC3"
    },
    {
      "bufferView": 3,
      "componentType": 5126,
      "count": 174,
      "max": [
        0.99597680568695068,
        0.99545729160308838,
        0.99870437383651733,
        1
      ],
      "min": [
        -0.98590934276580811,
        -0.9907609224319458,
        -0.99740892648696899,
        -1
      ],
      "type": "VEC4"
    },
    {
      "bufferView": 1,
      "componentType": 5126,
      "count": 174,
      "max": [
        0.99828600883483887,
        0.99975597858428955
      ],
      "min": [
        0.0031530000269412994,
        0.25563099980354309
      ],
      "type": "VEC2"
    },
    {
      "bufferView": 0,
      "componentType": 5125,
      "count": 360,
      "max": [
        173
      ],
      "min": [
        0
      ],
      "type": "SCALAR"
    },
    {
      "bufferView": 2,
      "byteOffset": 4176,
      "componentType": 5126,
      "count": 19737,
      "max": [
        6.3002920150756836,
        4.000676155090332,
        14.485184669494629
      ],
      "min": [
        0,
        0,
        0
      ],
      "type": "VEC3"
    },
    {
      "bufferView": 2,
      "byteOffset": 241020,
      "componentType": 5126,
      "count": 19737,
      "max": [
        0.99996262788772583,
        0.99997776746749878,
        1
      ],
      "min": [
        -0.99999958276748657,
        -0.99999302625656128,
        -1
      ],
      "type": "VEC3"
    },
    {
      "bufferView": 3,
      "byteOffset": 2784,
      "componentType": 5126,
      "count": 19737,
      "max": [
        1,
        0.99996179342269897,
        0.99997884035110474,
        1
      ],
      "min": [
        -0.99998170137405396,
        -0.9999995231628418,
        -0.99997299909591675,
        -1
      ],
      "type": "VEC4"
    },
    {
      "bufferView": 1,
      "byteOffset": 1392,
      "componentType": 5126,
      "count": 19737,
      "max": [
        0.99928098917007446,
        0.99962800741195679
      ],
      "min": [
        0.0039059999398887157,
        0.0039059999398887157
      ],
      "type": "VEC2"
    },
    {
      "bufferView": 0,
      "byteOffset": 1440,
      "componentType": 5125,
      "count": 91938,
      "max": [
        19736
      ],
      "min": [
        0
      ],
      "type": "SCALAR"
    }
  ],
  "asset": {
    "extras": {
      "author": "Benjamin Bardou (https://sketchfab.com/meryon)",
      "license": "CC-BY-4.0 (http://creativecommons.org/licenses/by/4.0/)",
      "source": "https://sketchfab.com/models/da84d976429f46b0ab4d2bfd9b6704e6",
      "title": "Diane I - Louvre Museum (Low Definition)"
    },
    "generator": "Sketchfab-3.18.6",
    "version": "2.0"
  },
  "bufferViews": [
    {
      "buffer": 0,
      "byteLength": 369192,
      "byteOffset": 0,
      "name": "floatBufferViews",
      "target": 34963
    },
    {
      "buffer": 0,
      "byteLength": 159288,
      "byteOffset": 369192,
      "byteStride": 8,
      "name": "floatBufferViews",
      "target": 34962
    },
    {
      "buffer": 0,
      "byteLength": 477864,
      "byteOffset": 528480,
      "byteStride": 12,
      "name": "floatBufferViews",
      "target": 34962
    },
    {
      "buffer": 0,
      "byteLength": 318576,
      "byteOffset": 1006344,
      "byteStride": 16,
      "name": "floatBufferViews",
      "target": 34962
    }
  ],
  "buffers": [
    {
      "byteLength": 1324920,
      "uri": "scene.bin"
    }
  ],
  "images": [
    {
      "uri": "textures/lambert3SG_emissive.jpg"
    }
  ],
  "materials": [
    {
      "doubleSided": true,
      "emissiveFactor": [
        1,
        1,
        1
      ],
      "emissiveTexture": {
        "index": 0,
        "texCoord": 0
      },
      "name": "lambert3SG",
      "pbrMetallicRoughness": {
        "baseColorFactor": [
          0,
          0,
          0,
          1
        ],
        "metallicFactor": 0,
        "roughnessFactor": 1
      }
    }
  ],
  "meshes": [
    {
      "primitives": [
        {
          "attributes": {
            "NORMAL": 1,
            "POSITION": 0,
            "TANGENT": 2,
            "TEXCOORD_0": 3
          },
          "indices": 4,
          "material": 0,
          "mode": 4
        }
      ]
    },
    {
      "primitives": [
        {
          "attributes": {
            "NORMAL": 6,
            "POSITION": 5,
            "TANGENT": 7,
            "TEXCOORD_0": 8
          },
          "indices": 9,
          "material": 0,
          "mode": 4
        }
      ]
    }
  ],
  "nodes": [
    {
      "children": [
        1
      ],
      "name": "RootNode (gltf orientation matrix)",
      "rotation": [
        -0.70710678118654746,
        -0,
        -0,
        0.70710678118654757
      ]
    },
    {
      "children": [
        2
      ],
      "name": "RootNode (model correction matrix)"
    },
    {
      "children": [
        3
      ],
      "matrix": [
        1,
        0,
        0,
        0,
        0,
        1,
        0,
        0,
        0,
        0,
        1,
        0,
        -2.6049869060516357,
        -1.926224946975708,
        0.049538999795913696,
        1
      ],
      "name": "DIANE2.obj.cleaner.gles"
    },
    {
      "children": [
        4,
        5
      ],
      "name": ""
    },
    {
      "mesh": 0,
      "name": ""
    },
    {
      "mesh": 1,
      "name": ""
    }
  ],
  "samplers": [
    {
      "magFilter": 9729,
      "minFilter": 9987,
      "wrapS": 10497,
      "wrapT": 10497
    }
  ],
  "scene": 0,
  "scenes": [
    {
      "name": "OSG_Scene",
      "nodes": [
        0
      ]
    }
  ],
  "textures": [
    {
      "sampler": 0,
      "source": 0
    }
  ]
}

